<mxfile host="65bd71144e">
    <diagram name="Page-1" id="H9DozYToPIpLw3MBiCmy">
        <mxGraphModel dx="567" dy="434" grid="1" gridSize="10" guides="1" tooltips="1" connect="1" arrows="1" fold="1" page="1" pageScale="1" pageWidth="850" pageHeight="1100" math="0" shadow="0">
            <root>
                <mxCell id="0"/>
                <mxCell id="1" parent="0"/>
                <mxCell id="vOFPwlqI6jd4hmdLcoIo-1" value="" style="ellipse;whiteSpace=wrap;html=1;aspect=fixed;" parent="1" vertex="1">
                    <mxGeometry x="340" y="85" width="80" height="80" as="geometry"/>
                </mxCell>
                <mxCell id="vOFPwlqI6jd4hmdLcoIo-2" value="Is Double" style="text;html=1;align=center;verticalAlign=middle;resizable=0;points=[];autosize=1;strokeColor=none;fillColor=none;" parent="1" vertex="1">
                    <mxGeometry x="345" y="110" width="70" height="30" as="geometry"/>
                </mxCell>
                <mxCell id="vOFPwlqI6jd4hmdLcoIo-3" value="" style="html=1;shadow=0;dashed=0;align=center;verticalAlign=middle;shape=mxgraph.arrows2.arrow;dy=0.6;dx=40;notch=0;rotation=45;" parent="1" vertex="1">
                    <mxGeometry x="415" y="165" width="80" height="20" as="geometry"/>
                </mxCell>
                <mxCell id="vOFPwlqI6jd4hmdLcoIo-4" value="" style="ellipse;whiteSpace=wrap;html=1;aspect=fixed;" parent="1" vertex="1">
                    <mxGeometry x="480" y="200" width="80" height="80" as="geometry"/>
                </mxCell>
                <mxCell id="vOFPwlqI6jd4hmdLcoIo-5" value="Is Operator&lt;br&gt;(*, /)" style="text;html=1;align=center;verticalAlign=middle;resizable=0;points=[];autosize=1;strokeColor=none;fillColor=none;" parent="1" vertex="1">
                    <mxGeometry x="480" y="220" width="80" height="40" as="geometry"/>
                </mxCell>
                <mxCell id="vOFPwlqI6jd4hmdLcoIo-6" value="" style="html=1;shadow=0;dashed=0;align=center;verticalAlign=middle;shape=mxgraph.arrows2.arrow;dy=0.6;dx=40;notch=0;rotation=90;" parent="1" vertex="1">
                    <mxGeometry x="480" y="320" width="80" height="20" as="geometry"/>
                </mxCell>
                <mxCell id="vOFPwlqI6jd4hmdLcoIo-7" value="" style="ellipse;whiteSpace=wrap;html=1;aspect=fixed;" parent="1" vertex="1">
                    <mxGeometry x="480" y="380" width="80" height="80" as="geometry"/>
                </mxCell>
                <mxCell id="vOFPwlqI6jd4hmdLcoIo-8" value="X Variable" style="text;html=1;align=center;verticalAlign=middle;resizable=0;points=[];autosize=1;strokeColor=none;fillColor=none;" parent="1" vertex="1">
                    <mxGeometry x="480" y="405" width="80" height="30" as="geometry"/>
                </mxCell>
                <mxCell id="vOFPwlqI6jd4hmdLcoIo-10" value="Is Int" style="ellipse;whiteSpace=wrap;html=1;aspect=fixed;" parent="1" vertex="1">
                    <mxGeometry x="180" y="380" width="80" height="80" as="geometry"/>
                </mxCell>
                <mxCell id="vOFPwlqI6jd4hmdLcoIo-13" value="" style="ellipse;whiteSpace=wrap;html=1;aspect=fixed;" parent="1" vertex="1">
                    <mxGeometry x="185" y="190" width="80" height="80" as="geometry"/>
                </mxCell>
                <mxCell id="vOFPwlqI6jd4hmdLcoIo-14" value="Is Operator&lt;br&gt;(+,-)" style="text;html=1;align=center;verticalAlign=middle;resizable=0;points=[];autosize=1;strokeColor=none;fillColor=none;" parent="1" vertex="1">
                    <mxGeometry x="185" y="210" width="80" height="40" as="geometry"/>
                </mxCell>
                <mxCell id="vOFPwlqI6jd4hmdLcoIo-15" value="" style="html=1;shadow=0;dashed=0;align=center;verticalAlign=middle;shape=mxgraph.arrows2.arrow;dy=0.6;dx=40;notch=0;rotation=-90;" parent="1" vertex="1">
                    <mxGeometry x="185" y="320" width="80" height="20" as="geometry"/>
                </mxCell>
                <mxCell id="vOFPwlqI6jd4hmdLcoIo-17" value="" style="html=1;shadow=0;dashed=0;align=center;verticalAlign=middle;shape=mxgraph.arrows2.arrow;dy=0.6;dx=40;notch=0;rotation=-140;" parent="1" vertex="1">
                    <mxGeometry x="250" y="480" width="80" height="20" as="geometry"/>
                </mxCell>
                <mxCell id="vOFPwlqI6jd4hmdLcoIo-20" value="" style="ellipse;whiteSpace=wrap;html=1;aspect=fixed;" parent="1" vertex="1">
                    <mxGeometry x="340" y="470" width="80" height="80" as="geometry"/>
                </mxCell>
                <mxCell id="vOFPwlqI6jd4hmdLcoIo-21" value="^" style="text;html=1;align=center;verticalAlign=middle;resizable=0;points=[];autosize=1;strokeColor=none;fillColor=none;" parent="1" vertex="1">
                    <mxGeometry x="365" y="495" width="30" height="30" as="geometry"/>
                </mxCell>
                <mxCell id="vOFPwlqI6jd4hmdLcoIo-22" value="" style="html=1;shadow=0;dashed=0;align=center;verticalAlign=middle;shape=mxgraph.arrows2.arrow;dy=0.6;dx=40;notch=0;rotation=-224;" parent="1" vertex="1">
                    <mxGeometry x="420" y="470" width="80" height="20" as="geometry"/>
                </mxCell>
                <mxCell id="vOFPwlqI6jd4hmdLcoIo-23" value="" style="html=1;shadow=0;dashed=0;align=center;verticalAlign=middle;shape=mxgraph.arrows2.arrow;dy=0.6;dx=40;notch=0;rotation=-45;" parent="1" vertex="1">
                    <mxGeometry x="260" y="170" width="80" height="20" as="geometry"/>
                </mxCell>
                <mxCell id="2" value="Reading from Input" style="rounded=0;whiteSpace=wrap;html=1;" parent="1" vertex="1">
                    <mxGeometry x="305" y="660" width="120" height="20" as="geometry"/>
                </mxCell>
                <mxCell id="4" value="" style="shape=singleArrow;direction=south;whiteSpace=wrap;html=1;" parent="1" vertex="1">
                    <mxGeometry x="360" y="690" width="9" height="30" as="geometry"/>
                </mxCell>
                <mxCell id="5" value="Parsing of Input" style="rounded=0;whiteSpace=wrap;html=1;" parent="1" vertex="1">
                    <mxGeometry x="304.5" y="730" width="120" height="20" as="geometry"/>
                </mxCell>
                <mxCell id="7" value="" style="shape=singleArrow;direction=south;whiteSpace=wrap;html=1;" parent="1" vertex="1">
                    <mxGeometry x="360" y="760" width="9" height="30" as="geometry"/>
                </mxCell>
                <mxCell id="8" value="Simplification of Eqs" style="rounded=0;whiteSpace=wrap;html=1;" parent="1" vertex="1">
                    <mxGeometry x="304.5" y="800" width="120" height="20" as="geometry"/>
                </mxCell>
                <mxCell id="9" value="Irreducible, if possible" style="rounded=0;whiteSpace=wrap;html=1;" parent="1" vertex="1">
                    <mxGeometry x="304.5" y="870" width="120" height="20" as="geometry"/>
                </mxCell>
                <mxCell id="10" value="" style="shape=singleArrow;direction=south;whiteSpace=wrap;html=1;" parent="1" vertex="1">
                    <mxGeometry x="360" y="830" width="9" height="30" as="geometry"/>
                </mxCell>
                <mxCell id="11" value="Final Equation" style="rounded=0;whiteSpace=wrap;html=1;" parent="1" vertex="1">
                    <mxGeometry x="304.5" y="940" width="120" height="20" as="geometry"/>
                </mxCell>
                <mxCell id="12" value="" style="shape=singleArrow;direction=south;whiteSpace=wrap;html=1;" parent="1" vertex="1">
                    <mxGeometry x="360" y="900" width="9" height="30" as="geometry"/>
                </mxCell>
                <mxCell id="13" value="Find Solution" style="rounded=0;whiteSpace=wrap;html=1;" parent="1" vertex="1">
                    <mxGeometry x="304.5" y="1010" width="120" height="20" as="geometry"/>
                </mxCell>
                <mxCell id="14" value="" style="shape=singleArrow;direction=south;whiteSpace=wrap;html=1;" parent="1" vertex="1">
                    <mxGeometry x="360" y="970" width="9" height="30" as="geometry"/>
                </mxCell>
                <mxCell id="15" value="Conclusion" style="rounded=0;whiteSpace=wrap;html=1;" parent="1" vertex="1">
                    <mxGeometry x="304.5" y="1080" width="120" height="20" as="geometry"/>
                </mxCell>
                <mxCell id="16" value="" style="shape=singleArrow;direction=south;whiteSpace=wrap;html=1;" parent="1" vertex="1">
                    <mxGeometry x="360" y="1040" width="9" height="30" as="geometry"/>
                </mxCell>
                <mxCell id="17" value="" style="verticalLabelPosition=bottom;verticalAlign=top;html=1;shape=mxgraph.basic.tick" parent="1" vertex="1">
                    <mxGeometry x="435" y="650" width="40" height="30" as="geometry"/>
                </mxCell>
                <mxCell id="18" value="" style="verticalLabelPosition=bottom;verticalAlign=top;html=1;shape=mxgraph.basic.tick" parent="1" vertex="1">
                    <mxGeometry x="435" y="720" width="40" height="30" as="geometry"/>
                </mxCell>
                <mxCell id="19" value="&lt;b&gt;&lt;u&gt;Process:&lt;/u&gt;&lt;/b&gt;" style="ellipse;whiteSpace=wrap;html=1;" vertex="1" parent="1">
                    <mxGeometry x="260" y="580" width="200" height="60" as="geometry"/>
                </mxCell>
            </root>
        </mxGraphModel>
    </diagram>
</mxfile>